<svg width="211" height="57" viewBox="0 0 211 57" fill="none" xmlns="http://www.w3.org/2000/svg">
<g id="Primary_Horizontal_Lockup_Full_Color 1">
<path id="Vector" d="M199.278 44.8865C197.24 44.8865 195.398 44.418 193.75 43.481C192.131 42.5442 190.861 41.2491 189.94 39.5958C189.019 37.915 188.558 36.0415 188.558 33.9748C188.558 31.9909 188.991 30.1722 189.856 28.5189C190.749 26.8382 191.992 25.5156 193.583 24.5512C195.174 23.5592 196.989 23.0632 199.027 23.0632C201.121 23.0632 202.935 23.5179 204.471 24.4272C206.034 25.3365 207.221 26.604 208.03 28.2297C208.84 29.8279 209.245 31.6739 209.245 33.7682C209.245 34.0162 209.231 34.2642 209.203 34.5122C209.175 34.76 209.161 34.8979 209.161 34.9254H193.164C193.304 36.7992 193.988 38.2459 195.216 39.2652C196.445 40.2848 197.84 40.7945 199.404 40.7945C201.805 40.7945 203.647 39.6923 204.931 37.4879L208.868 39.348C207.946 41.0289 206.662 42.3788 205.015 43.3984C203.396 44.3905 201.484 44.8865 199.278 44.8865ZM204.554 31.4537C204.499 30.7922 204.275 30.1171 203.885 29.4284C203.494 28.7394 202.879 28.1608 202.042 27.6924C201.232 27.1964 200.213 26.9484 198.985 26.9484C197.617 26.9484 196.431 27.3617 195.425 28.1883C194.448 29.0149 193.779 30.1035 193.415 31.4537H204.554Z" fill="#5E5E5E"/>
<path id="Vector_2" d="M178.448 44.8865C176.075 44.8865 174.107 44.349 172.544 43.2744C171.008 42.1722 169.92 40.7945 169.277 39.1412L173.381 37.4053C173.856 38.535 174.54 39.3892 175.433 39.9678C176.354 40.5464 177.359 40.8359 178.448 40.8359C179.593 40.8359 180.528 40.6293 181.254 40.2158C181.98 39.7751 182.343 39.2101 182.343 38.5214C182.343 37.8599 182.05 37.3227 181.463 36.9093C180.877 36.4686 179.914 36.0826 178.574 35.752L175.726 35.0908C174.163 34.7324 172.809 34.0712 171.664 33.107C170.548 32.1149 169.989 30.8336 169.989 29.2629C169.989 27.3617 170.785 25.86 172.376 24.7578C173.967 23.6281 175.922 23.0632 178.239 23.0632C180.165 23.0632 181.868 23.4628 183.348 24.2618C184.855 25.0609 185.944 26.2182 186.614 27.7337L182.552 29.4284C182.161 28.5742 181.561 27.9403 180.751 27.5271C179.942 27.1137 179.062 26.9071 178.113 26.9071C177.192 26.9071 176.382 27.1137 175.684 27.5271C174.986 27.9127 174.638 28.4363 174.638 29.0978C174.638 29.6764 174.875 30.1446 175.349 30.503C175.852 30.8612 176.633 31.1642 177.694 31.4123L180.793 32.1563C182.887 32.6796 184.45 33.4787 185.483 34.5534C186.516 35.6005 187.033 36.8681 187.033 38.356C187.033 39.5683 186.656 40.6705 185.902 41.6625C185.176 42.6543 184.157 43.4398 182.845 44.0184C181.561 44.5971 180.095 44.8865 178.448 44.8865Z" fill="#5E5E5E"/>
<path id="Vector_3" d="M156.411 44.8865C154.932 44.8865 153.592 44.5971 152.391 44.0184C151.219 43.4123 150.284 42.5857 149.585 41.5385C148.916 40.4639 148.581 39.2516 148.581 37.9014C148.581 35.752 149.39 34.0573 151.009 32.8175C152.656 31.5774 154.736 30.9576 157.249 30.9576C159.454 30.9576 161.339 31.3297 162.902 32.0735V31.2057C162.902 29.9656 162.4 28.9462 161.394 28.1471C160.417 27.3204 159.231 26.9071 157.835 26.9071C155.713 26.9071 154.011 27.7613 152.726 29.4695L149.209 27.0724C150.186 25.7773 151.4 24.7854 152.852 24.0965C154.331 23.4077 155.993 23.0632 157.835 23.0632C160.878 23.0632 163.223 23.821 164.87 25.3365C166.545 26.8244 167.383 28.9323 167.383 31.6603V44.225H162.902V41.704H162.651C161.981 42.6407 161.129 43.4123 160.096 44.0184C159.064 44.5971 157.835 44.8865 156.411 44.8865ZM157.165 41.1251C158.198 41.1251 159.147 40.8773 160.013 40.3813C160.906 39.8577 161.604 39.1826 162.106 38.356C162.637 37.5018 162.902 36.5926 162.902 35.628C161.423 34.8289 159.845 34.4294 158.17 34.4294C156.635 34.4294 155.434 34.76 154.569 35.4214C153.703 36.0826 153.271 36.9232 153.271 37.9425C153.271 38.8795 153.647 39.6511 154.401 40.2573C155.183 40.8359 156.104 41.1251 157.165 41.1251Z" fill="#5E5E5E"/>
<path id="Vector_4" d="M137.085 44.8862C135.577 44.8862 134.223 44.5695 133.023 43.9356C131.85 43.3019 130.971 42.5028 130.384 41.5385H130.133V44.225H125.778V14.6315H130.384V23.5178L130.133 26.3697H130.384C130.971 25.4328 131.85 24.6475 133.023 24.0138C134.223 23.38 135.577 23.0631 137.085 23.0631C138.871 23.0631 140.518 23.5316 142.026 24.4684C143.561 25.4052 144.776 26.7141 145.669 28.3949C146.59 30.0481 147.051 31.908 147.051 33.9747C147.051 36.0412 146.59 37.9013 145.669 39.5543C144.776 41.2076 143.561 42.5167 142.026 43.4809C140.518 44.418 138.871 44.8862 137.085 44.8862ZM136.289 40.7119C137.378 40.7119 138.383 40.4363 139.304 39.8852C140.253 39.3341 141.007 38.5486 141.565 37.5293C142.151 36.4822 142.445 35.2974 142.445 33.9747C142.445 32.6521 142.151 31.4809 141.565 30.4616C141.007 29.4145 140.253 28.6153 139.304 28.0643C138.383 27.5132 137.378 27.2376 136.289 27.2376C135.2 27.2376 134.181 27.5132 133.232 28.0643C132.311 28.6153 131.557 29.4006 130.971 30.4202C130.412 31.4398 130.133 32.6245 130.133 33.9747C130.133 35.3249 130.412 36.5097 130.971 37.5293C131.557 38.5486 132.311 39.3341 133.232 39.8852C134.181 40.4363 135.2 40.7119 136.289 40.7119Z" fill="#5E5E5E"/>
<path id="Vector_5" d="M113.068 44.8865C111.03 44.8865 109.188 44.418 107.54 43.481C105.921 42.5442 104.651 41.2491 103.73 39.5958C102.809 37.915 102.348 36.0415 102.348 33.9748C102.348 31.9909 102.781 30.1722 103.646 28.5189C104.539 26.8382 105.782 25.5156 107.373 24.5512C108.964 23.5592 110.779 23.0632 112.817 23.0632C114.91 23.0632 116.725 23.5179 118.261 24.4272C119.824 25.3365 121.011 26.604 121.82 28.2297C122.63 29.8279 123.034 31.6739 123.034 33.7682C123.034 34.0162 123.021 34.2642 122.993 34.5122C122.965 34.76 122.951 34.8979 122.951 34.9254H106.954C107.094 36.7992 107.778 38.2459 109.006 39.2652C110.234 40.2848 111.63 40.7945 113.194 40.7945C115.594 40.7945 117.437 39.6923 118.721 37.4879L122.657 39.348C121.736 41.0289 120.452 42.3788 118.805 43.3984C117.186 44.3905 115.274 44.8865 113.068 44.8865ZM118.345 31.4537C118.288 30.7922 118.065 30.1171 117.674 29.4284C117.284 28.7394 116.669 28.1608 115.832 27.6924C115.022 27.1964 114.003 26.9484 112.775 26.9484C111.407 26.9484 110.221 27.3617 109.215 28.1883C108.238 29.0149 107.568 30.1035 107.205 31.4537H118.345Z" fill="#5E5E5E"/>
<path id="Vector_6" d="M89.5637 23.7246H93.9187V26.7831H94.1699C94.6167 25.7361 95.4264 24.8681 96.5988 24.1792C97.7713 23.4628 98.9717 23.1046 100.2 23.1046C101.205 23.1046 102.029 23.2424 102.671 23.5179V28.2712C101.721 27.8026 100.661 27.5684 99.4883 27.5684C97.9806 27.5684 96.7104 28.1472 95.6774 29.3044C94.6725 30.4341 94.1699 31.8255 94.1699 33.4788V44.2251H89.5637V23.7246Z" fill="#5E5E5E"/>
<path id="Vector_7" d="M82.9898 20.2526C82.1244 20.2526 81.3846 19.9633 80.7702 19.3846C80.184 18.7784 79.891 18.0482 79.891 17.194C79.891 16.3398 80.184 15.6234 80.7702 15.0448C81.3846 14.4386 82.1244 14.1355 82.9898 14.1355C83.8552 14.1355 84.5809 14.4386 85.1674 15.0448C85.7815 15.6234 86.0886 16.3398 86.0886 17.194C86.0886 18.0482 85.7815 18.7784 85.1674 19.3846C84.5809 19.9633 83.8552 20.2526 82.9898 20.2526ZM80.6865 23.7245H85.2928V44.225H80.6865V23.7245Z" fill="#5E5E5E"/>
<path id="Vector_8" d="M59.7048 14.6315H77.9207V19.0539H64.3947V27.5683H76.5806V31.9494H64.3947V44.225H59.7048V14.6315Z" fill="#5E5E5E"/>
<path id="Vector_9" d="M14.4313 53.1376C16.7344 54.0524 19.2331 54.5954 21.8566 54.6858C25.4072 54.8081 28.7836 54.0836 31.8022 52.7072C28.1825 51.3036 24.9043 49.2511 22.1065 46.6989C20.293 49.565 17.6106 51.8286 14.4313 53.1376Z" fill="#FF9100"/>
<path id="Vector_10" d="M22.106 46.6997C15.7195 40.8699 11.8452 32.4319 12.1727 23.177C12.1833 22.8765 12.1994 22.5761 12.2181 22.2758C11.0744 21.9839 9.88024 21.8057 8.65137 21.7633C6.89238 21.7027 5.18894 21.918 3.58075 22.365C1.87591 25.3126 0.847094 28.6947 0.718928 32.3171C0.388159 41.6662 6.12025 49.835 14.4307 53.1385C17.6101 51.8294 20.2924 49.5683 22.106 46.6997Z" fill="#FFC400"/>
<path id="Vector_11" d="M22.1063 46.6994C23.5911 44.3541 24.4914 41.6044 24.5962 38.6421C24.8719 30.8495 19.5643 24.1461 12.2184 22.2755C12.1996 22.5758 12.1835 22.8761 12.1729 23.1767C11.8455 32.4316 15.7198 40.8696 22.1063 46.6994Z" fill="#FF9100"/>
<path id="Vector_12" d="M23.7747 0.371216C19.5909 3.67937 16.2872 8.04146 14.2884 13.0665C13.144 15.9447 12.4249 19.0365 12.215 22.2774C19.5609 24.148 24.8685 30.8514 24.5927 38.644C24.4879 41.6063 23.585 44.3532 22.1028 46.7013C24.9005 49.256 28.1788 51.3061 31.7984 52.7097C39.0637 49.395 44.2184 42.2623 44.517 33.8257C44.7103 28.3595 42.5825 23.488 39.5759 19.3758C36.4007 15.0269 23.7747 0.371216 23.7747 0.371216Z" fill="#DD2C00"/>
</g>
</svg>
