<svg xmlns="http://www.w3.org/2000/svg" width="1263" height="1146" viewBox="0 0 1263 1146" fill="none">
<path d="M298.8 1070.92L658.813 1145.73L766.386 628.051L1061.98 689.476C1266.07 731.885 1439.82 649.005 1480.05 455.429C1520.27 261.853 1393.61 118.101 1189.53 75.6924L829.556 0.890675L721.975 518.61L426.336 457.177C222.251 414.768 48.496 497.648 8.27105 691.224C-31.9539 884.8 94.7161 1028.51 298.8 1070.92ZM882.384 69.829L1173.47 130.317C1341.56 165.246 1451.96 274.286 1417.04 442.336C1382.12 610.386 1237.42 666.417 1069.33 631.488L778.241 571L882.384 69.829ZM418.999 515.124L710.128 575.62L605.976 1076.83L314.847 1016.34C146.756 981.407 36.4004 872.376 71.321 704.326C106.242 536.276 250.907 480.194 418.999 515.124Z" fill="#E9E9E9"/>
</svg>