<svg width="146" height="146" viewBox="0 0 146 146" fill="none" xmlns="http://www.w3.org/2000/svg">
<path fill-rule="evenodd" clip-rule="evenodd" d="M9.35033 61.1218C15.6815 26.1006 49.2046 2.85105 84.2207 9.18724C119.237 15.5234 142.491 49.0466 136.155 84.0627C135.76 86.254 137.213 88.3492 139.399 88.744C141.591 89.1387 143.686 87.6863 144.081 85.5C151.211 46.0961 125.052 8.38257 85.658 1.25687C46.2592 -5.86882 8.54565 20.2908 1.41996 59.6845C-5.70573 99.0782 20.4539 136.792 59.8476 143.917C70.9562 145.927 81.9383 145.289 92.141 142.45C93.9325 144.09 96.3162 145.087 98.9326 145.087C104.495 145.087 109.004 140.577 109.004 135.015C109.004 129.454 104.495 124.944 98.9326 124.944C93.3707 124.944 88.8767 129.438 88.8615 134.985C80.1163 137.247 70.7588 137.698 61.2798 135.987C26.2637 129.661 3.01413 96.1379 9.35033 61.1218ZM66.7101 18.2158C61.1482 18.2158 56.639 22.725 56.639 28.2869C56.639 33.8488 61.1482 38.358 66.7101 38.358C70.7942 38.358 74.3065 35.9288 75.8905 32.4368C80.6275 32.8063 85.3796 34.0259 89.9344 36.1768C110.046 45.6659 118.665 69.6645 109.176 89.7764C99.6867 109.888 75.6881 118.507 55.5762 109.018C35.4644 99.5287 26.8457 75.5301 36.3348 55.4182C37.2863 53.404 36.4209 51.0051 34.4117 50.0588C32.3975 49.1073 29.9986 49.9727 29.0523 51.9819C17.6653 76.1222 28.0047 104.918 52.1399 116.305C76.2751 127.692 105.077 117.353 116.463 93.2178C127.85 69.0775 117.511 40.2812 93.3758 28.8942C87.7481 26.2373 81.8573 24.7646 75.9968 24.3749C74.4684 20.7614 70.8904 18.2259 66.7202 18.2259L66.7101 18.2158ZM72.7528 56.481C63.8558 56.481 56.639 63.6927 56.639 72.5948C56.639 81.4968 63.8507 88.7085 72.7528 88.7085C81.6548 88.7085 88.8666 81.4968 88.8666 72.5948C88.8666 63.6927 81.6548 56.481 72.7528 56.481ZM48.5872 72.5897C48.5872 59.2442 59.4073 48.4241 72.7528 48.4241C86.0983 48.4241 96.9184 59.2442 96.9184 72.5897C96.9184 85.9352 86.0983 96.7553 72.7528 96.7553C59.4073 96.7553 48.5872 85.9352 48.5872 72.5897Z" fill="url(#paint0_linear_85_539)"/>
<defs>
<linearGradient id="paint0_linear_85_539" x1="0.250902" y1="72.5897" x2="145.255" y2="72.5897" gradientUnits="userSpaceOnUse">
<stop stop-color="#00FFB9"/>
<stop offset="0.51" stop-color="#0BB9D2"/>
<stop offset="0.6" stop-color="#0BB3CD"/>
<stop offset="0.71" stop-color="#0BA4C0"/>
<stop offset="0.83" stop-color="#0C8AAB"/>
<stop offset="0.96" stop-color="#0D678D"/>
<stop offset="1" stop-color="#0E5A82"/>
</linearGradient>
</defs>
</svg>
