<svg width="155" height="130" viewBox="0 0 155 130" fill="none" xmlns="http://www.w3.org/2000/svg">
<path d="M117.389 26.0055C115.076 23.7573 111.378 23.8159 109.134 26.1343C106.891 28.4527 106.95 32.1586 109.263 34.4067L140.769 64.9967L109.263 95.5866C106.95 97.8348 106.891 101.535 109.134 103.859C110.279 105.042 111.804 105.639 113.329 105.639C114.854 105.639 116.256 105.089 117.389 103.988L153.218 69.1944C154.352 68.0937 154.994 66.5774 154.994 64.9908C154.994 63.4043 154.352 61.8938 153.218 60.7873L117.389 25.9938V26.0055ZM41.6652 105.639C43.1899 105.639 44.7147 105.042 45.8597 103.859C48.103 101.541 48.0446 97.8348 45.7312 95.5866L14.2253 64.9967L45.7312 34.4067C48.0446 32.1586 48.103 28.4585 45.8597 26.1343C43.6164 23.8159 39.9242 23.7573 37.605 26.0055L1.77597 60.799C0.64262 61.8996 0 63.416 0 65.0025C0 66.5891 0.64262 68.0996 1.77597 69.2061L37.605 104C38.7383 105.1 40.2047 105.651 41.6652 105.651V105.639ZM90.405 0.110859C87.2445 -0.521431 84.1716 1.53351 83.5406 4.70667L60.009 123.003C59.3781 126.171 61.4286 129.25 64.595 129.883C64.9806 129.959 65.3662 129.994 65.7401 129.994C68.4683 129.994 70.9044 128.068 71.4594 125.287L94.9851 6.99579C95.616 3.82849 93.5655 0.749004 90.3991 0.116714L90.405 0.110859Z" fill="url(#paint0_linear_88_647)"/>
<defs>
<linearGradient id="paint0_linear_88_647" x1="0" y1="64.9967" x2="155" y2="64.9967" gradientUnits="userSpaceOnUse">
<stop stop-color="#00FFB9"/>
<stop offset="0.51" stop-color="#0BB9D2"/>
<stop offset="0.6" stop-color="#0BB3CD"/>
<stop offset="0.71" stop-color="#0BA4C0"/>
<stop offset="0.83" stop-color="#0C8AAB"/>
<stop offset="0.96" stop-color="#0D678D"/>
<stop offset="1" stop-color="#0E5A82"/>
</linearGradient>
</defs>
</svg>
