<svg width="204" height="127" viewBox="0 0 204 127" fill="none" xmlns="http://www.w3.org/2000/svg">
<g clip-path="url(#clip0_84_509)">
<path fill-rule="evenodd" clip-rule="evenodd" d="M101.75 112.936C91.0869 121.295 77.6631 126.276 63.0841 126.276C28.383 126.276 0.25 98.0686 0.25 63.2759C0.25 28.4831 28.383 0.275879 63.0841 0.275879C77.6686 0.275879 91.0869 5.25715 101.75 13.6155C112.413 5.25715 125.837 0.275879 140.416 0.275879C175.117 0.275879 203.25 28.4831 203.25 63.2759C203.25 98.0686 175.117 126.276 140.416 126.276C125.831 126.276 112.413 121.295 101.75 112.936ZM9.91512 63.2759C9.91512 33.8342 33.7199 9.96651 63.0841 9.96651C74.8374 9.96651 85.7011 13.7895 94.5039 20.2662C84.0089 31.523 77.5872 46.6463 77.5872 63.2759C77.5872 79.9055 84.0089 95.0233 94.5039 106.286C85.7011 112.762 74.8374 116.585 63.0841 116.585C33.7199 116.585 9.91512 92.7176 9.91512 63.2759ZM109.002 20.2662C117.804 13.7895 128.668 9.96651 140.421 9.96651C169.785 9.96651 193.59 33.8342 193.59 63.2759C193.59 92.7176 169.785 116.585 140.421 116.585C128.668 116.585 117.804 112.762 109.002 106.286C119.496 95.0288 125.918 79.9055 125.918 63.2759C125.918 46.6463 119.496 31.5284 109.002 20.2662ZM101.75 26.6886C110.737 36.2378 116.248 49.1097 116.248 63.2759C116.248 77.442 110.737 90.3139 101.75 99.8632C92.7628 90.3139 87.2523 77.442 87.2523 63.2759C87.2523 49.1097 92.7628 36.2324 101.75 26.6886Z" fill="url(#paint0_linear_84_509)"/>
</g>
<defs>
<linearGradient id="paint0_linear_84_509" x1="0.25" y1="63.2759" x2="203.25" y2="63.2759" gradientUnits="userSpaceOnUse">
<stop stop-color="#00FFB9"/>
<stop offset="0.51" stop-color="#0BB9D2"/>
<stop offset="0.6" stop-color="#0BB3CD"/>
<stop offset="0.71" stop-color="#0BA4C0"/>
<stop offset="0.83" stop-color="#0C8AAB"/>
<stop offset="0.96" stop-color="#0D678D"/>
<stop offset="1" stop-color="#0E5A82"/>
</linearGradient>
<clipPath id="clip0_84_509">
<rect width="203" height="126" fill="white" transform="translate(0.25 0.275879)"/>
</clipPath>
</defs>
</svg>
