<svg width="178" height="126" viewBox="0 0 178 126" fill="none" xmlns="http://www.w3.org/2000/svg">
<g clip-path="url(#clip0_89_658)">
<path d="M139.305 47.5666H138.53C133.889 20.6291 109.511 0.0869141 81.2631 0.0869141C53.0155 0.0869141 26.8935 21.9855 23.6026 50.6697C9.28594 56.8678 0 70.8215 0 86.3248C0 107.644 17.4147 125.083 38.6948 125.083H139.305C160.589 125.083 178 107.64 178 86.3248C178 65.0098 160.585 47.5666 139.305 47.5666ZM139.305 115.395H38.6948C22.6342 115.395 9.67169 102.412 9.67169 86.3248C9.67169 73.9205 17.7964 62.6835 29.6017 58.8037C31.5385 58.2241 32.8926 56.4774 32.8926 54.5415C34.4396 29.5399 55.5308 9.96762 81.2631 9.96762C106.995 9.96762 127.118 28.9603 129.441 52.992C129.634 55.5114 131.763 57.4473 134.279 57.4473H139.309C155.37 57.4473 168.332 70.4311 168.332 86.5179C168.332 102.605 155.37 115.395 139.309 115.395H139.305ZM86.0969 77.0236V40.5918H76.4212V77.0236L61.9116 62.4903L55.1411 69.272L81.259 95.4327L107.377 69.272L100.606 62.4903L86.0969 77.0236ZM139.305 47.5666H138.53C133.889 20.6291 109.511 0.0869141 81.2631 0.0869141C53.0155 0.0869141 26.8935 21.9855 23.6026 50.6697C9.28594 56.8678 0 70.8215 0 86.3248C0 107.644 17.4147 125.083 38.6948 125.083H139.305C160.589 125.083 178 107.64 178 86.3248C178 65.0098 160.585 47.5666 139.305 47.5666ZM139.305 115.395H38.6948C22.6342 115.395 9.67169 102.412 9.67169 86.3248C9.67169 73.9205 17.7964 62.6835 29.6017 58.8037C31.5385 58.2241 32.8926 56.4774 32.8926 54.5415C34.4396 29.5399 55.5308 9.96762 81.2631 9.96762C106.995 9.96762 127.118 28.9603 129.441 52.992C129.634 55.5114 131.763 57.4473 134.279 57.4473H139.309C155.37 57.4473 168.332 70.4311 168.332 86.5179C168.332 102.605 155.37 115.395 139.309 115.395H139.305ZM86.0969 77.0236V40.5918H76.4212V77.0236L61.9116 62.4903L55.1411 69.272L81.259 95.4327L107.377 69.272L100.606 62.4903L86.0969 77.0236Z" fill="url(#paint0_linear_89_658)"/>
<path d="M139.305 47.5666H138.53C133.889 20.6291 109.511 0.0869141 81.2631 0.0869141C53.0155 0.0869141 26.8935 21.9855 23.6026 50.6697C9.28594 56.8678 0 70.8215 0 86.3248C0 107.644 17.4147 125.083 38.6948 125.083H139.305C160.589 125.083 178 107.64 178 86.3248C178 65.0098 160.585 47.5666 139.305 47.5666ZM139.305 115.395H38.6948C22.6342 115.395 9.67169 102.412 9.67169 86.3248C9.67169 73.9205 17.7964 62.6835 29.6017 58.8037C31.5385 58.2241 32.8926 56.4774 32.8926 54.5415C34.4396 29.5399 55.5308 9.96762 81.2631 9.96762C106.995 9.96762 127.118 28.9603 129.441 52.992C129.634 55.5114 131.763 57.4473 134.279 57.4473H139.309C155.37 57.4473 168.332 70.4311 168.332 86.5179C168.332 102.605 155.37 115.395 139.309 115.395H139.305ZM86.0969 77.0236V40.5918H76.4212V77.0236L61.9116 62.4903L55.1411 69.272L81.259 95.4327L107.377 69.272L100.606 62.4903L86.0969 77.0236ZM139.305 47.5666H138.53C133.889 20.6291 109.511 0.0869141 81.2631 0.0869141C53.0155 0.0869141 26.8935 21.9855 23.6026 50.6697C9.28594 56.8678 0 70.8215 0 86.3248C0 107.644 17.4147 125.083 38.6948 125.083H139.305C160.589 125.083 178 107.64 178 86.3248C178 65.0098 160.585 47.5666 139.305 47.5666ZM139.305 115.395H38.6948C22.6342 115.395 9.67169 102.412 9.67169 86.3248C9.67169 73.9205 17.7964 62.6835 29.6017 58.8037C31.5385 58.2241 32.8926 56.4774 32.8926 54.5415C34.4396 29.5399 55.5308 9.96762 81.2631 9.96762C106.995 9.96762 127.118 28.9603 129.441 52.992C129.634 55.5114 131.763 57.4473 134.279 57.4473H139.309C155.37 57.4473 168.332 70.4311 168.332 86.5179C168.332 102.605 155.37 115.395 139.309 115.395H139.305ZM86.0969 77.0236V40.5918H76.4212V77.0236L61.9116 62.4903L55.1411 69.272L81.259 95.4327L107.377 69.272L100.606 62.4903L86.0969 77.0236Z" fill="url(#paint1_linear_89_658)"/>
<path d="M139.305 47.5666H138.53C133.889 20.6291 109.511 0.0869141 81.2631 0.0869141C53.0155 0.0869141 26.8935 21.9855 23.6026 50.6697C9.28594 56.8678 0 70.8215 0 86.3248C0 107.644 17.4147 125.083 38.6948 125.083H139.305C160.589 125.083 178 107.64 178 86.3248C178 65.0098 160.585 47.5666 139.305 47.5666ZM139.305 115.395H38.6948C22.6342 115.395 9.67169 102.412 9.67169 86.3248C9.67169 73.9205 17.7964 62.6835 29.6017 58.8037C31.5385 58.2241 32.8926 56.4774 32.8926 54.5415C34.4396 29.5399 55.5308 9.96762 81.2631 9.96762C106.995 9.96762 127.118 28.9603 129.441 52.992C129.634 55.5114 131.763 57.4473 134.279 57.4473H139.309C155.37 57.4473 168.332 70.4311 168.332 86.5179C168.332 102.605 155.37 115.395 139.309 115.395H139.305ZM86.0969 77.0236V40.5918H76.4212V77.0236L61.9116 62.4903L55.1411 69.272L81.259 95.4327L107.377 69.272L100.606 62.4903L86.0969 77.0236ZM139.305 47.5666H138.53C133.889 20.6291 109.511 0.0869141 81.2631 0.0869141C53.0155 0.0869141 26.8935 21.9855 23.6026 50.6697C9.28594 56.8678 0 70.8215 0 86.3248C0 107.644 17.4147 125.083 38.6948 125.083H139.305C160.589 125.083 178 107.64 178 86.3248C178 65.0098 160.585 47.5666 139.305 47.5666ZM139.305 115.395H38.6948C22.6342 115.395 9.67169 102.412 9.67169 86.3248C9.67169 73.9205 17.7964 62.6835 29.6017 58.8037C31.5385 58.2241 32.8926 56.4774 32.8926 54.5415C34.4396 29.5399 55.5308 9.96762 81.2631 9.96762C106.995 9.96762 127.118 28.9603 129.441 52.992C129.634 55.5114 131.763 57.4473 134.279 57.4473H139.309C155.37 57.4473 168.332 70.4311 168.332 86.5179C168.332 102.605 155.37 115.395 139.309 115.395H139.305ZM86.0969 77.0236V40.5918H76.4212V77.0236L61.9116 62.4903L55.1411 69.272L81.259 95.4327L107.377 69.272L100.606 62.4903L86.0969 77.0236Z" fill="url(#paint2_linear_89_658)"/>
</g>
<defs>
<linearGradient id="paint0_linear_89_658" x1="0" y1="62.5869" x2="178" y2="62.5869" gradientUnits="userSpaceOnUse">
<stop stop-color="#00FFB9"/>
<stop offset="0.51" stop-color="#0BB9D2"/>
<stop offset="0.6" stop-color="#0BB3CD"/>
<stop offset="0.71" stop-color="#0BA4C0"/>
<stop offset="0.83" stop-color="#0C8AAB"/>
<stop offset="0.96" stop-color="#0D678D"/>
<stop offset="1" stop-color="#0E5A82"/>
</linearGradient>
<linearGradient id="paint1_linear_89_658" x1="0" y1="62.5869" x2="178" y2="62.5869" gradientUnits="userSpaceOnUse">
<stop stop-color="#00FFB9"/>
<stop offset="0.51" stop-color="#0BB9D2"/>
<stop offset="0.6" stop-color="#0BB3CD"/>
<stop offset="0.71" stop-color="#0BA4C0"/>
<stop offset="0.83" stop-color="#0C8AAB"/>
<stop offset="0.96" stop-color="#0D678D"/>
<stop offset="1" stop-color="#0E5A82"/>
</linearGradient>
<linearGradient id="paint2_linear_89_658" x1="0" y1="62.5869" x2="178" y2="62.5869" gradientUnits="userSpaceOnUse">
<stop stop-color="#00FFB9"/>
<stop offset="0.51" stop-color="#0BB9D2"/>
<stop offset="0.6" stop-color="#0BB3CD"/>
<stop offset="0.71" stop-color="#0BA4C0"/>
<stop offset="0.83" stop-color="#0C8AAB"/>
<stop offset="0.96" stop-color="#0D678D"/>
<stop offset="1" stop-color="#0E5A82"/>
</linearGradient>
<clipPath id="clip0_89_658">
<rect width="178" height="125" fill="white" transform="translate(0 0.0869141)"/>
</clipPath>
</defs>
</svg>
