<svg width="134" height="138" viewBox="0 0 134 138" fill="none" xmlns="http://www.w3.org/2000/svg">
<path d="M96.5579 53.0907C95.6642 52.8114 94.7089 52.9064 93.8878 53.3421C93.0666 53.7834 92.4521 54.5319 92.184 55.4201L84.5868 80.2729C84.3131 81.1667 84.4081 82.1219 84.8438 82.9431C85.2795 83.7642 86.0337 84.3787 86.9219 84.6468C87.2514 84.753 87.5978 84.8032 87.9441 84.7977C89.4803 84.7977 90.8377 83.7977 91.2846 82.323L98.8818 57.4647C99.1555 56.5709 99.0605 55.6101 98.6248 54.7889C98.1891 53.9677 97.435 53.3533 96.5468 53.0851L96.5579 53.0907ZM81.1402 57.2691C80.481 56.61 79.5928 56.2469 78.66 56.2469C77.7271 56.2469 76.8444 56.6156 76.1853 57.2691L67.5491 65.9053C66.8899 66.5645 66.5213 67.4527 66.5213 68.3856C66.5213 69.3185 66.8955 70.2011 67.5491 70.8658L76.1853 79.502C77.5539 80.865 79.7716 80.865 81.1346 79.502C82.5032 78.1334 82.5032 75.9157 81.1346 74.5527L74.9787 68.4191L81.1402 62.2576C81.8049 61.5984 82.1792 60.7046 82.1792 59.7717C82.1792 58.8388 81.8049 57.9395 81.1402 57.2803V57.2691ZM115.908 65.8997L107.272 57.2636C106.624 56.5709 105.725 56.1687 104.77 56.1519C103.826 56.1352 102.904 56.5038 102.233 57.1742C101.569 57.8445 101.194 58.7606 101.211 59.7103C101.228 60.6599 101.63 61.5593 102.328 62.2129L108.501 68.3967L102.345 74.5583C101.016 75.9269 101.038 78.111 102.384 79.4629C103.736 80.8147 105.92 80.8371 107.3 79.5132L115.936 70.877C116.601 70.2122 116.97 69.3185 116.964 68.38C116.964 67.4471 116.584 66.5533 115.92 65.8941L115.908 65.8997ZM133.142 79.1612V58.5595C133.13 48.8899 125.293 41.0637 115.635 41.0526H67.8284C58.1644 41.0637 50.3382 48.8955 50.3214 58.5595V79.1668C50.3382 88.8308 58.17 96.657 67.8284 96.6682H115.635C125.299 96.6682 133.13 88.8253 133.142 79.1612ZM57.3265 79.1612V58.5595C57.3265 52.7611 62.0244 48.0576 67.8284 48.0576H115.635C121.427 48.0576 126.131 52.7611 126.137 58.5595V79.1668C126.125 84.9596 121.427 89.6632 115.635 89.6688H67.8284C62.03 89.6688 57.3321 84.9652 57.3265 79.1668V79.1612ZM91.7259 31.3438C93.6643 31.3438 95.2285 29.7741 95.2285 27.8413V26.847C95.2285 19.7303 92.3963 12.904 87.3632 7.87088C82.3245 2.83776 75.5038 0.0111723 68.387 0H27.597C20.4803 0.0111723 13.654 2.83776 8.62088 7.87088C3.58776 12.904 0.761172 19.7303 0.75 26.847V110.885C0.761172 118.002 3.58776 124.828 8.62088 129.861C13.654 134.894 20.4747 137.721 27.597 137.732H68.387C75.5038 137.721 82.33 134.894 87.3632 129.861C92.3963 124.828 95.2229 118.007 95.2285 110.885V109.885C95.2285 107.952 93.6643 106.383 91.7259 106.383C89.7875 106.383 88.2234 107.952 88.2234 109.885V110.885C88.2234 121.839 79.3359 130.716 68.387 130.727H27.597C16.6426 130.716 7.7662 121.834 7.75502 110.885V26.847C7.7662 15.8926 16.6482 7.0162 27.597 7.00502H68.387C79.3415 7.0162 88.2178 15.8982 88.2234 26.847V27.8413C88.2234 29.7741 89.7931 31.3438 91.7259 31.3438ZM43.646 16.049C41.7132 16.049 40.1435 17.6187 40.1435 19.5515C40.1435 21.4843 41.7132 23.054 43.646 23.054H52.338C54.2708 23.054 55.8405 21.4899 55.8405 19.5515C55.8405 17.6131 54.2708 16.049 52.338 16.049H43.646Z" fill="url(#paint0_linear_97_673)"/>
<defs>
<linearGradient id="paint0_linear_97_673" x1="0.75" y1="68.866" x2="133.142" y2="68.866" gradientUnits="userSpaceOnUse">
<stop stop-color="#00FFB9"/>
<stop offset="0.51" stop-color="#0BB9D2"/>
<stop offset="0.6" stop-color="#0BB3CD"/>
<stop offset="0.71" stop-color="#0BA4C0"/>
<stop offset="0.83" stop-color="#0C8AAB"/>
<stop offset="0.96" stop-color="#0D678D"/>
<stop offset="1" stop-color="#0E5A82"/>
</linearGradient>
</defs>
</svg>
