<svg width="141" height="136" viewBox="0 0 141 136" fill="none" xmlns="http://www.w3.org/2000/svg">
<path d="M140.254 52.1159H128.523V20.1065L89.5613 59.0734C82.8981 65.7066 72.0654 65.7066 65.4121 59.0734L53.0383 46.6995C51.971 45.6322 50.5496 45.0437 49.0384 45.0437C47.5272 45.0437 46.1058 45.6322 45.0385 46.6995L9.03414 82.6989L0.75 74.4147L36.7294 38.4104C43.5073 31.6424 54.5445 31.6424 61.3224 38.4104L73.5916 50.6795L73.8858 51.1583H74.1102C75.0628 51.9363 76.2399 52.3553 77.4818 52.3553H77.4867C78.9181 52.3553 80.2598 51.7967 81.2722 50.7842L120.239 11.8174H88.2247V0.0869141H134.388C137.62 0.0869141 140.254 2.72028 140.254 5.95214V52.1159Z" fill="url(#paint0_linear_93_665)"/>
<path d="M133.142 119.741C133.142 128.204 126.259 135.087 117.795 135.087H22.974C14.5104 135.087 7.62769 128.204 7.62769 119.741V102.025H19.3532V119.741C19.3532 121.736 20.9791 123.357 22.974 123.357H45.5522V78.3151H57.2826V123.357H83.4817V87.8012H95.2121V123.357H117.795C119.79 123.357 121.411 121.736 121.411 119.741V68.834H133.142V119.741Z" fill="url(#paint1_linear_93_665)"/>
<defs>
<linearGradient id="paint0_linear_93_665" x1="0.75" y1="41.3929" x2="140.254" y2="41.3929" gradientUnits="userSpaceOnUse">
<stop stop-color="#00FFB9"/>
<stop offset="0.51" stop-color="#0BB9D2"/>
<stop offset="0.6" stop-color="#0BB3CD"/>
<stop offset="0.71" stop-color="#0BA4C0"/>
<stop offset="0.83" stop-color="#0C8AAB"/>
<stop offset="0.96" stop-color="#0D678D"/>
<stop offset="1" stop-color="#0E5A82"/>
</linearGradient>
<linearGradient id="paint1_linear_93_665" x1="7.62769" y1="101.961" x2="133.142" y2="101.961" gradientUnits="userSpaceOnUse">
<stop stop-color="#00FFB9"/>
<stop offset="0.51" stop-color="#0BB9D2"/>
<stop offset="0.6" stop-color="#0BB3CD"/>
<stop offset="0.71" stop-color="#0BA4C0"/>
<stop offset="0.83" stop-color="#0C8AAB"/>
<stop offset="0.96" stop-color="#0D678D"/>
<stop offset="1" stop-color="#0E5A82"/>
</linearGradient>
</defs>
</svg>
