<svg width="185" height="45" viewBox="0 0 185 45" fill="none" xmlns="http://www.w3.org/2000/svg">
<g id="strapi-full-logo-dark 1" clip-path="url(#clip0_1446_509)">
<g id="Group">
<path id="Vector" d="M178.042 6.60354C178.798 7.36726 179.691 7.74892 180.72 7.74892C181.781 7.74892 182.69 7.36726 183.445 6.60354C184.201 5.84002 184.579 4.93854 184.579 3.89887C184.579 2.8592 184.201 1.94943 183.445 1.16958C182.69 0.389929 181.781 0 180.72 0C179.691 0 178.798 0.389929 178.042 1.16958C177.287 1.94943 176.909 2.8592 176.909 3.89887C176.909 4.93854 177.287 5.84002 178.042 6.60354ZM96.6601 16.5723C96.6601 16.6521 96.5958 16.7169 96.5165 16.7169H91.2088V26.8538C91.2088 27.6986 91.418 28.3158 91.836 28.7058C92.2541 29.0957 92.8651 29.315 93.6691 29.3638C94.4047 29.4083 95.3018 29.4054 96.3603 29.3546L96.3875 29.3534L96.4364 29.351L96.5089 29.3472C96.5911 29.343 96.6601 29.409 96.6601 29.4918V34.9121C96.6601 34.9477 96.6471 34.982 96.6235 35.0084C96.6 35.0349 96.5676 35.0517 96.5325 35.0556L96.4351 35.0663C92.2769 35.5141 89.3369 35.0998 87.615 33.823C85.8622 32.5233 84.9858 30.2003 84.9858 26.8538V16.7169H80.9325C80.8945 16.7169 80.858 16.7017 80.8311 16.6746C80.8041 16.6475 80.789 16.6108 80.7889 16.5725V10.818C80.7889 10.7384 80.8532 10.6737 80.9325 10.6737H84.9858V6.64875C84.9858 6.53413 85.053 6.43054 85.157 6.38427L91.0073 3.78297C91.0291 3.7732 91.0531 3.76909 91.0769 3.77101C91.1007 3.77293 91.1237 3.78082 91.1438 3.79396C91.1638 3.8071 91.1802 3.82508 91.1916 3.84626C91.203 3.86744 91.2089 3.89114 91.2088 3.91521V10.6737H96.5165C96.5958 10.6737 96.6601 10.7384 96.6601 10.818V16.5723ZM107.944 14.8646C108.523 13.3051 109.48 12.1354 110.815 11.3557C112.036 10.6421 113.385 10.2549 114.863 10.1946C114.934 10.1914 115.044 10.1893 115.132 10.188C115.212 10.1868 115.277 10.2517 115.277 10.332V16.945C115.277 17.083 115.158 17.1894 115.021 17.1768C113.227 17.013 111.615 17.4118 110.188 18.3736C108.692 19.3808 107.944 21.0541 107.944 23.3932V34.8964C107.944 34.9348 107.929 34.9715 107.902 34.9987C107.875 35.0258 107.839 35.041 107.801 35.041H101.865C101.827 35.041 101.79 35.0258 101.763 34.9987C101.736 34.9715 101.721 34.9348 101.721 34.8964V10.8178C101.721 10.738 101.786 10.6735 101.865 10.6735H107.801C107.88 10.6735 107.944 10.738 107.944 10.8178V14.8646Z" fill="#212067"/>
<path id="Vector_2" fill-rule="evenodd" clip-rule="evenodd" d="M137.37 10.673C137.331 10.673 137.295 10.6882 137.268 10.7153C137.241 10.7424 137.226 10.7791 137.226 10.8174V13.5484C135.361 11.1765 132.74 9.99081 129.363 9.99081C126.147 9.99081 123.389 11.2334 121.089 13.7188C118.79 16.2044 117.64 19.2504 117.64 22.8568C117.64 26.4631 118.79 29.5091 121.089 31.9948C123.389 34.4802 126.147 35.723 129.363 35.723C132.74 35.723 135.361 34.537 137.226 32.1652V34.8962C137.226 34.976 137.29 35.0405 137.37 35.0405H143.305C143.324 35.0406 143.343 35.0368 143.36 35.0296C143.378 35.0224 143.394 35.0117 143.407 34.9983C143.42 34.9849 143.431 34.969 143.438 34.9515C143.445 34.934 143.449 34.9152 143.449 34.8962V10.8174C143.449 10.7791 143.434 10.7424 143.407 10.7153C143.38 10.6882 143.343 10.673 143.305 10.673H137.37ZM125.744 27.8278C126.999 29.095 128.59 29.7286 130.52 29.7286C132.45 29.7286 134.05 29.0869 135.32 27.8036C136.59 26.5202 137.226 24.8714 137.226 22.8568C137.226 20.8424 136.59 19.1935 135.32 17.9102C134.05 16.6268 132.45 15.9852 130.52 15.9852C128.59 15.9852 126.999 16.6268 125.744 17.9104C124.49 19.1935 123.863 20.8424 123.863 22.8568C123.863 24.8714 124.49 26.5283 125.744 27.8278ZM170.478 13.7188C168.178 11.2332 165.404 9.9906 162.156 9.9906C158.779 9.9906 156.174 11.1765 154.341 13.5481V10.8176C154.341 10.7793 154.326 10.7426 154.299 10.7155C154.272 10.6884 154.236 10.6732 154.198 10.6732H148.262C148.224 10.6732 148.187 10.6884 148.16 10.7155C148.133 10.7426 148.118 10.7793 148.118 10.8176V44.6434C148.118 44.7232 148.182 44.7879 148.262 44.7879H154.198C154.236 44.7879 154.272 44.7727 154.299 44.7456C154.326 44.7185 154.341 44.6817 154.341 44.6434V32.1654C156.174 34.5373 158.779 35.7232 162.156 35.7232C165.404 35.7232 168.178 34.4804 170.478 31.995C172.777 29.5094 173.927 26.4634 173.927 22.857C173.927 19.2506 172.777 16.2046 170.478 13.719V13.7188ZM156.222 27.828C157.476 29.0952 159.068 29.7288 160.998 29.7288C162.928 29.7288 164.527 29.0872 165.798 27.8038C167.068 26.5205 167.703 24.8716 167.703 22.857C167.703 20.8426 167.068 19.1937 165.798 17.9104C164.527 16.627 162.928 15.9854 160.998 15.9854C159.068 15.9854 157.476 16.627 156.222 17.9106C154.968 19.1937 154.341 20.8426 154.341 22.857C154.341 24.8716 154.968 26.5285 156.222 27.828Z" fill="#212067"/>
<path id="Vector_3" d="M177.777 35.0412C177.739 35.0412 177.702 35.0259 177.675 34.9988C177.648 34.9717 177.633 34.935 177.633 34.8966V10.818C177.633 10.7382 177.697 10.6735 177.777 10.6735H183.713C183.792 10.6735 183.856 10.7382 183.856 10.818V34.8966C183.856 34.935 183.841 34.9717 183.814 34.9988C183.787 35.0259 183.751 35.0412 183.713 35.0412H177.777ZM66.6944 19.1772C65.8421 18.7711 65.416 18.2432 65.416 17.5933C65.416 16.976 65.6812 16.4886 66.2119 16.1312C66.7425 15.774 67.41 15.5952 68.2138 15.5952C69.7556 15.5952 70.9204 16.2023 71.7078 17.4165C71.734 17.4577 71.7739 17.4883 71.8204 17.5026C71.8669 17.5169 71.917 17.5141 71.9616 17.4946L77.2119 15.148C77.2304 15.1398 77.2469 15.1278 77.2604 15.1127C77.2739 15.0976 77.2841 15.0798 77.2903 15.0605C77.2965 15.0411 77.2985 15.0207 77.2963 15.0005C77.294 14.9803 77.2876 14.9608 77.2773 14.9434C77.2171 14.8401 77.1555 14.7376 77.0926 14.636C76.1926 13.2066 75.0285 12.1419 73.5687 11.3308C71.9606 10.4372 70.1757 9.9906 68.2138 9.9906C65.6089 9.9906 63.4301 10.6811 61.6773 12.0619C59.9245 13.4427 59.0481 15.3352 59.0481 17.7395C59.0481 19.3315 59.4744 20.6556 60.3265 21.7114C61.1789 22.7674 62.2159 23.539 63.4381 24.0264C64.6602 24.5137 65.8823 24.9198 67.1045 25.2448C68.3264 25.5697 69.3637 25.9352 70.216 26.3413C71.0682 26.7474 71.4942 27.2755 71.4942 27.9252C71.4942 29.3223 70.3847 30.0209 68.1658 30.0209C66.0533 30.0209 64.5896 29.2321 63.7743 27.655C63.7043 27.5194 63.5441 27.4574 63.4054 27.5196L58.1698 29.8632C58.1523 29.871 58.1365 29.8823 58.1234 29.8963C58.1103 29.9104 58.1001 29.927 58.0935 29.945C58.0868 29.9631 58.0839 29.9824 58.0848 30.0017C58.0857 30.0209 58.0905 30.0398 58.0988 30.0572C58.1201 30.1014 58.1424 30.1476 58.1587 30.1805C59.9884 33.8754 63.324 35.723 68.1658 35.723C70.9315 35.723 73.239 35.0488 75.0881 33.7003C76.9375 32.352 77.8621 30.427 77.8621 27.9252C77.8621 26.2683 77.4358 24.8873 76.5837 23.7827C75.7313 22.6781 74.6943 21.8901 73.4722 21.4191C72.2744 20.9558 71.0502 20.5652 69.806 20.2495C68.5838 19.9407 67.5466 19.5832 66.6944 19.1772Z" fill="#212067"/>
</g>
<path id="Vector_4" d="M0.108459 15.5999C0.108459 8.24604 0.108459 4.5692 2.37754 2.2846C4.64663 0 8.29849 0 15.6024 0H29.3089C36.6128 0 40.2647 0 42.5338 2.2846C44.8028 4.5692 44.8028 8.24604 44.8028 15.5999V29.4001C44.8028 36.754 44.8028 40.4308 42.5338 42.7154C40.2647 45 36.6128 45 29.3089 45H15.6024C8.29849 45 4.64663 45 2.37754 42.7154C0.108459 40.4308 0.108459 36.754 0.108459 29.4001V15.5999Z" fill="#4945FF"/>
<path id="Vector_5" fill-rule="evenodd" clip-rule="evenodd" d="M30.9476 13.65H15.9003V21.375H23.573V29.0999H31.2455V13.95C31.2455 13.7844 31.112 13.65 30.9476 13.65Z" fill="white"/>
<path id="Vector_6" d="M23.2749 21.375H23.5728V21.6749H23.2749V21.375Z" fill="white"/>
<path id="Vector_7" d="M15.9004 21.375H23.2749C23.4396 21.375 23.573 21.5093 23.573 21.6749V29.0999H16.1985C16.0338 29.0999 15.9004 28.9657 15.9004 28.8V21.375ZM23.573 29.0999H31.2455L23.8273 36.5688C23.8065 36.5898 23.78 36.6042 23.7511 36.61C23.7222 36.6158 23.6922 36.6128 23.665 36.6015C23.6377 36.5902 23.6145 36.5709 23.5981 36.5463C23.5817 36.5216 23.573 36.4926 23.573 36.4629V29.0999ZM15.9004 21.375H8.58778C8.55834 21.3749 8.52956 21.3661 8.50509 21.3496C8.48062 21.3331 8.46154 21.3097 8.45027 21.2824C8.43899 21.255 8.43602 21.2248 8.44174 21.1958C8.44745 21.1667 8.46159 21.14 8.48237 21.119L15.9006 13.65L15.9004 21.375Z" fill="#9593FF"/>
</g>
<defs>
<clipPath id="clip0_1446_509">
<rect width="184.688" height="45" fill="white"/>
</clipPath>
</defs>
</svg>
